<?xml version="1.0" encoding="utf-8"?>
<!-- Generator: Adobe Illustrator 24.0.2, SVG Export Plug-In . SVG Version: 6.00 Build 0)  -->
<svg version="1.1" id="Layer_2" xmlns="http://www.w3.org/2000/svg" xmlns:xlink="http://www.w3.org/1999/xlink" x="0px" y="0px"
	 viewBox="0 0 117.8 110.99" style="enable-background:new 0 0 117.8 110.99;" xml:space="preserve">
<style type="text/css">
	.st0{fill-rule:evenodd;clip-rule:evenodd;fill:#004087;}
	.st1{fill:#EF5A24;}
</style>
<g>
	<path class="st0" d="M19.07,0v79.85h79.86V0H19.07z M58.3,55.03c0.94,1.11,2.47,2.78,4.24,5.25c0.65,0.9-0.18,1.71-1,1.94
		c-4.99,1.42-12.16,3.35-15.9,4.69c-1.66,0.6-10.61,9.57-9.58,7.3c2.51-5.51,8.53-10.51,10.9-16.05c-0.75,0-5.01,3.41-5.76,4.22
		c-1.19,1.29-3.26,3.31-4.75,3.31c-4.63,0-7.41,2.43-11.89,2.43c0-0.81,7.79-5.89,9.11-8.82c2.26-5.01,7.31-6.04,12.55-7.78
		c2.08-0.69,10.63-7.07,10.18-7.07c-1.79,0-7.1,2.44-9.93,2.36c-0.52-0.02-1.01-0.02-1.4-0.04c-0.67-0.02-0.53-0.43-0.24-0.83
		c0.3-0.41,0.66-0.9,1.07-1.44c1.38-1.83,3.26-4.24,4.61-6.05c1.07-1.43,1.35-2.63,3.13-2.88c1.5-0.21,3.6-2.02,5.03-2.02
		c-0.05,0.13-1.58,0.98-1.99,1.43c-0.74,0.81-1.79,1.45-2.54,2.27c0,0-1.49,1.62-1.2,1.62c1.06,0,3.59-0.79,4.63-1.06
		c1.98-0.52,1.52-0.39,2.24,0.74c0.36,0.56,2.5,5.56,3.13,7.19c0.37,0.97-2.83,3.47-4.4,5.49C57.2,52.92,56.85,53.33,58.3,55.03z
		 M94.04,60.37c-1.76-1.08-3.64-2.6-4.82-3.41c-1.76-1.21-3.26,0.23-4.1,1.63c-1.27,2.09-3.98-3.72-5.34-5.58
		c-0.85-1.16-3.12-2.56-3.97-3.72c-0.34-0.46-1.67-4.18-0.58-4.18c1.35-0.7,6.55-2.89,6.98-1.52c0.2,0.65,1.22,3.42,2.37,6.58
		c0.09,0.24,3.12,0.06,3.45,0.29c2.83,2.02,3.62,4.47,6.02,7.16V60.37z M94.04,48.31c-2.56-2.66-8.67-9.56-9.52-10.48
		c-1.17-1.26-4.3,0.21-5.27,1.27c-0.44,0.48-2.73,1.64-3.8,2.03c-2.34,0.86-4.13,0.55-5.34-0.95c-2.85-3.53-3.78-4.52-4.21-4.99
		c-1.17-1.26-6.18-9.9-7.93-8c-2.09,2.26-5.84,3.76-8.17,6.16c-2.99,3.08-5.15,7.34-8.11,10.91c-0.71,0.86-4.38,1.74-5.32,2.86
		c-3.68,4.4-8.82,10.27-12.14,11.97c-0.06,0.03-0.15,0.05-0.28,0.05V4.88h70.09V48.31z"/>
	<polyline class="st0" points="42.31,18.54 43.12,21.02 45.72,21.02 43.61,22.55 44.42,25.02 42.31,23.49 40.2,25.02 41.01,22.55 
		38.91,21.02 41.51,21.02 	"/>
	<polyline class="st0" points="75.68,18.54 74.88,21.02 72.28,21.02 74.38,22.55 73.58,25.02 75.68,23.49 77.79,25.02 76.99,22.55 
		79.09,21.02 76.49,21.02 	"/>
	<polyline class="st0" points="59,11.4 60.04,14.62 63.42,14.62 60.69,16.6 61.73,19.82 59,17.83 56.27,19.82 57.31,16.6 
		54.58,14.62 57.95,14.62 	"/>
</g>
<g>
	<path class="st1" d="M3.91,84.53h2.27l0.69,6.38l0.62-6.38h2.13L8.15,96.55H5.5l-0.63-5.47l-0.6,5.47H1.63L0.17,84.53H2.6
		l0.62,6.43L3.91,84.53z"/>
	<path class="st1" d="M10.15,84.53h4.46v2.14h-2.06v2.69h1.97v2.15h-1.97v2.88h2.09v2.14h-4.5V84.53z"/>
	<path class="st1" d="M21.51,96.55h-2.39l-0.19-1.75h-1.51l-0.17,1.75h-2.18l1.58-12.01h3.28L21.51,96.55z M18.19,87.47l-0.53,5.23
		h1.06L18.19,87.47z"/>
	<path class="st1" d="M22.03,84.53h2.4v9.87h1.73v2.14h-4.14V84.53z"/>
	<path class="st1" d="M29.46,96.55h-2.4v-9.87H25.6v-2.14h5.32v2.14h-1.46V96.55z"/>
	<path class="st1" d="M33.92,89.37h1.2v-4.84h2.4v12.01h-2.4v-5.03h-1.2v5.03h-2.4V84.53h2.4V89.37z"/>
	<path class="st1" d="M45.98,96.55l-0.55-0.98c-0.19,0.38-0.44,0.65-0.72,0.82c-0.29,0.17-0.68,0.26-1.17,0.26h-0.91
		c-1.4,0-2.09-0.7-2.09-2.09v-2.42c0-0.89,0.27-1.57,0.81-2.02l0.67-0.58l-0.39-0.72c-0.27-0.51-0.41-1.1-0.41-1.77v-0.38
		c0-1.49,0.74-2.23,2.23-2.23h1.03c1.49,0,2.23,0.74,2.23,2.23v1.6h-2.21V86.9c0-0.29-0.14-0.43-0.43-0.43h-0.17
		c-0.29,0-0.43,0.14-0.43,0.43v0.24c0,0.34,0.11,0.73,0.34,1.15l1.49,2.75l0.51-1.61h2.35l-1.42,3.96l1.72,3.16H45.98z M43.49,94.66
		c0.24,0,0.41-0.13,0.5-0.38l0.26-0.65l-1.15-2.09c-0.19,0.18-0.29,0.44-0.29,0.77v1.97c0,0.25,0.13,0.38,0.38,0.38H43.49z"/>
	<path class="st1" d="M57.1,96.55h-2.39l-0.19-1.75h-1.51l-0.17,1.75h-2.18l1.58-12.01h3.28L57.1,96.55z M53.77,87.47l-0.53,5.23
		h1.06L53.77,87.47z"/>
	<path class="st1" d="M61.07,91.24h2.37v3.17c0,1.49-0.74,2.23-2.23,2.23h-1.48c-1.49,0-2.23-0.74-2.23-2.23v-7.76
		c0-1.49,0.74-2.23,2.23-2.23h1.44c1.49,0,2.23,0.74,2.23,2.23v2.81h-2.37v-2.56c0-0.29-0.14-0.43-0.43-0.43h-0.27
		c-0.29,0-0.43,0.14-0.43,0.43v7.24c0,0.29,0.14,0.43,0.43,0.43h0.31c0.29,0,0.43-0.14,0.43-0.43V91.24z"/>
	<path class="st1" d="M66.64,89.37h1.2v-4.84h2.4v12.01h-2.4v-5.03h-1.2v5.03h-2.4V84.53h2.4V89.37z"/>
	<path class="st1" d="M73.52,84.53v12.01h-2.4V84.53H73.52z"/>
	<path class="st1" d="M74.4,84.53h4.46v2.14H76.8v2.69h1.97v2.15H76.8v2.88h2.09v2.14h-4.5V84.53z"/>
	<path class="st1" d="M84.09,96.55h-3.16l-1.61-12.01h2.44l0.84,8.53l0.88-8.53h2.23L84.09,96.55z"/>
	<path class="st1" d="M86.22,84.53h4.46v2.14h-2.06v2.69h1.97v2.15h-1.97v2.88h2.09v2.14h-4.5V84.53z"/>
	<path class="st1" d="M94.32,96.55l-0.91-7.95v7.95h-1.92V84.53h3.47l0.69,7.28l0.74-7.28h3.48v12.01h-2.37v-7.86l-0.91,7.86H94.32z
		"/>
	<path class="st1" d="M100.72,84.53h4.46v2.14h-2.06v2.69h1.97v2.15h-1.97v2.88h2.09v2.14h-4.5V84.53z"/>
	<path class="st1" d="M111.86,96.55h-2.33L108,90.01l0.03,3.05l0.03,3.48h-2.08V84.53h2.45l1.39,5.95l-0.03-3.47l-0.02-2.49h2.08
		V96.55z"/>
	<path class="st1" d="M116.32,96.55h-2.4v-9.87h-1.46v-2.14h5.32v2.14h-1.46V96.55z"/>
</g>
<g>
	<path class="st1" d="M43.89,104.76c0.37,0.26,0.62,0.53,0.76,0.81c0.14,0.28,0.21,0.64,0.21,1.08v2.21c0,1.49-0.74,2.23-2.23,2.23
		h-1.34c-1.49,0-2.23-0.74-2.23-2.23v-2.56h2.35v2.33c0,0.29,0.14,0.43,0.43,0.43h0.22c0.29,0,0.43-0.14,0.43-0.43v-1.44
		c0-0.32-0.14-0.58-0.41-0.77l-2.06-1.53c-0.37-0.26-0.62-0.53-0.75-0.82c-0.14-0.28-0.21-0.64-0.21-1.07v-1.9
		c0-1.49,0.74-2.23,2.23-2.23h1.3c1.49,0,2.23,0.74,2.23,2.23v2.2h-2.35v-1.97c0-0.29-0.14-0.43-0.43-0.43h-0.19
		c-0.29,0-0.43,0.14-0.43,0.43v1.13c0,0.32,0.14,0.58,0.41,0.77L43.89,104.76z"/>
	<path class="st1" d="M51.47,98.98v9.88c0,1.49-0.74,2.23-2.23,2.23h-1.46c-1.49,0-2.23-0.74-2.23-2.23v-9.88h2.4v9.63
		c0,0.29,0.14,0.43,0.43,0.43h0.26c0.29,0,0.43-0.14,0.43-0.43v-9.63H51.47z"/>
	<path class="st1" d="M55.15,110.99l-0.91-7.95v7.95h-1.92V98.98h3.47l0.69,7.28l0.74-7.28h3.48v12.01h-2.37v-7.86l-0.91,7.86H55.15
		z"/>
	<path class="st1" d="M64.38,110.99l-0.91-7.95v7.95h-1.92V98.98h3.47l0.69,7.28l0.74-7.28h3.48v12.01h-2.37v-7.86l-0.91,7.86H64.38
		z"/>
	<path class="st1" d="M73.2,98.98v12.01h-2.4V98.98H73.2z"/>
	<path class="st1" d="M77.68,110.99h-2.4v-9.87h-1.46v-2.14h5.32v2.14h-1.46V110.99z"/>
</g>
</svg>
