<?xml version="1.0" encoding="utf-8"?>
<!-- Generator: Adobe Illustrator 24.0.2, SVG Export Plug-In . SVG Version: 6.00 Build 0)  -->
<svg version="1.1" id="Layer_2" xmlns="http://www.w3.org/2000/svg" xmlns:xlink="http://www.w3.org/1999/xlink" x="0px" y="0px"
	 viewBox="0 0 288.21 86.27" style="enable-background:new 0 0 288.21 86.27;" xml:space="preserve">
<style type="text/css">
	.st0{fill-rule:evenodd;clip-rule:evenodd;fill:#004087;}
	.st1{display:none;fill:#EF5A24;}
	.st2{fill:#EF5A24;}
	.st3{display:none;}
</style>
<g>
	<path class="st0" d="M3.11,2.7v79.85h79.86V2.7H3.11z M42.34,57.73c0.94,1.11,2.47,2.78,4.24,5.25c0.65,0.9-0.18,1.71-1,1.94
		c-4.99,1.42-12.16,3.35-15.9,4.69c-1.66,0.6-10.61,9.57-9.58,7.3c2.51-5.51,8.53-10.51,10.9-16.05c-0.75,0-5.01,3.41-5.76,4.22
		c-1.19,1.29-3.26,3.31-4.75,3.31c-4.63,0-7.41,2.43-11.89,2.43c0-0.81,7.79-5.89,9.11-8.82c2.26-5.01,7.31-6.04,12.55-7.78
		c2.08-0.69,10.63-7.07,10.18-7.07c-1.79,0-7.1,2.44-9.93,2.36c-0.52-0.02-1.01-0.02-1.4-0.04c-0.67-0.02-0.53-0.43-0.24-0.83
		c0.3-0.41,0.66-0.9,1.07-1.44c1.38-1.83,3.26-4.24,4.61-6.05c1.07-1.43,1.35-2.63,3.13-2.88c1.5-0.21,3.6-2.02,5.03-2.02
		c-0.05,0.13-1.58,0.98-1.99,1.43c-0.74,0.81-1.79,1.45-2.54,2.27c0,0-1.49,1.62-1.2,1.62c1.06,0,3.59-0.79,4.63-1.06
		c1.98-0.52,1.52-0.39,2.24,0.74c0.36,0.56,2.5,5.56,3.13,7.19c0.37,0.97-2.83,3.47-4.4,5.49C41.24,55.62,40.9,56.03,42.34,57.73z
		 M78.08,63.07c-1.76-1.08-3.64-2.6-4.82-3.41c-1.76-1.21-3.26,0.23-4.1,1.63c-1.27,2.09-3.98-3.72-5.34-5.58
		c-0.85-1.16-3.12-2.56-3.97-3.72c-0.34-0.46-1.67-4.18-0.58-4.18c1.35-0.7,6.55-2.89,6.98-1.52c0.2,0.65,1.22,3.42,2.37,6.58
		c0.09,0.24,3.12,0.06,3.45,0.29c2.83,2.02,3.62,4.47,6.02,7.16V63.07z M78.08,51.01c-2.56-2.66-8.67-9.56-9.52-10.48
		c-1.17-1.26-4.3,0.21-5.27,1.27c-0.44,0.48-2.73,1.64-3.8,2.03c-2.34,0.86-4.13,0.55-5.34-0.95c-2.85-3.53-3.78-4.52-4.21-4.99
		c-1.17-1.26-6.18-9.9-7.93-8c-2.09,2.26-5.84,3.76-8.17,6.16c-2.99,3.08-5.15,7.34-8.11,10.91c-0.71,0.86-4.38,1.74-5.32,2.86
		C16.74,54.23,11.6,60.1,8.28,61.8c-0.06,0.03-0.15,0.05-0.28,0.05V7.58h70.09V51.01z"/>
	<polyline class="st0" points="26.35,21.24 27.16,23.72 29.76,23.72 27.65,25.25 28.46,27.73 26.35,26.2 24.25,27.73 25.05,25.25 
		22.95,23.72 25.55,23.72 	"/>
	<polyline class="st0" points="59.73,21.24 58.92,23.72 56.32,23.72 58.43,25.25 57.62,27.73 59.73,26.2 61.83,27.73 61.03,25.25 
		63.13,23.72 60.53,23.72 	"/>
	<polyline class="st0" points="43.04,14.1 44.09,17.32 47.46,17.32 44.73,19.3 45.77,22.52 43.04,20.53 40.31,22.52 41.35,19.3 
		38.62,17.32 42,17.32 	"/>
</g>
<path class="st1" d="M165.04,25.05l2,18.59l1.8-18.59h6.2l-4.25,34.97h-7.69l-1.85-15.94l-1.75,15.94h-7.69l-4.25-34.97h7.09
	l1.8,18.74l2-18.74H165.04z"/>
<path class="st1" d="M192.92,60.02l-0.55-5.1h-4.4l-0.5,5.1h-6.35l4.6-34.97h9.54l4.6,34.97H192.92z M188.62,48.83h3.1l-1.55-15.24
	L188.62,48.83z"/>
<path class="st1" d="M224.8,47.38v6.45c0,4.35-2.15,6.5-6.5,6.5h-3.9c-4.35,0-6.5-2.15-6.5-6.5v-7.44h6.84v6.79
	c0,0.85,0.4,1.25,1.25,1.25h0.65c0.85,0,1.25-0.4,1.25-1.25v-4.2c0-1.1-0.35-1.65-1.2-2.25l-6-4.45c-2.15-1.55-2.8-3-2.8-5.5v-5.55
	c0-4.35,2.15-6.5,6.5-6.5h3.8c4.35,0,6.5,2.15,6.5,6.5v6.4h-6.84V31.9c0-0.85-0.4-1.25-1.25-1.25h-0.55c-0.85,0-1.25,0.4-1.25,1.25
	v3.3c0,1.1,0.35,1.65,1.2,2.25l6,4.45C224.15,43.44,224.8,44.79,224.8,47.38z"/>
<g>
	<g>
		<path class="st2" d="M103.74,21.15l1.11,10.36l1-10.36h3.45l-2.37,19.5h-4.29l-1.03-8.89l-0.97,8.89h-4.29l-2.37-19.5h3.96
			l1,10.45l1.11-10.45H103.74z"/>
		<path class="st2" d="M117.45,21.15v3.48h-3.34v4.37h3.2v3.48h-3.2v4.68h3.4v3.48h-7.3v-19.5H117.45z"/>
		<path class="st2" d="M124.78,40.65l-0.31-2.84h-2.45l-0.28,2.84h-3.54l2.56-19.5h5.32l2.56,19.5H124.78z M122.38,34.41h1.73
			l-0.86-8.5L122.38,34.41z"/>
		<path class="st2" d="M133.39,21.15v16.02h2.81v3.48h-6.71v-19.5H133.39z"/>
		<path class="st2" d="M137.65,40.65V24.64h-2.37v-3.48h8.64v3.48h-2.37v16.02H137.65z"/>
		<path class="st2" d="M150.74,29.01v-7.85h3.9v19.5h-3.9v-8.16h-1.95v8.16h-3.9v-19.5h3.9v7.85H150.74z"/>
		<path class="st2" d="M167.49,39.06c-0.61,1.2-1.42,1.75-3.06,1.75h-1.48c-2.26,0-3.4-1.14-3.4-3.4v-3.93
			c0-1.36,0.31-2.42,1.31-3.29l1.09-0.95l-0.64-1.17c-0.59-1.09-0.67-1.75-0.67-2.87v-0.61c0-2.42,1.2-3.62,3.62-3.62h1.67
			c2.42,0,3.62,1.2,3.62,3.62v2.59h-3.59V25c0-0.47-0.22-0.7-0.7-0.7h-0.28c-0.47,0-0.7,0.22-0.7,0.7v0.39c0,0.73,0.2,1.2,0.56,1.87
			l2.42,4.46l0.84-2.62h3.82l-2.31,6.43l2.79,5.13h-4.01L167.49,39.06z M165.15,36.98l0.42-1.06l-1.87-3.4
			c-0.36,0.33-0.47,0.64-0.47,1.25v3.2c0,0.42,0.19,0.61,0.61,0.61h0.5C164.73,37.59,164.98,37.42,165.15,36.98z"/>
		<path class="st2" d="M182.56,40.65l-0.31-2.84h-2.45l-0.28,2.84h-3.54l2.56-19.5h5.32l2.56,19.5H182.56z M180.16,34.41h1.73
			l-0.86-8.5L180.16,34.41z"/>
		<path class="st2" d="M196.71,32.04v5.15c0,2.42-1.2,3.62-3.62,3.62h-2.4c-2.42,0-3.62-1.2-3.62-3.62V24.61
			c0-2.42,1.2-3.62,3.62-3.62h2.34c2.42,0,3.62,1.2,3.62,3.62v4.57h-3.84v-4.15c0-0.47-0.22-0.7-0.7-0.7h-0.45
			c-0.47,0-0.7,0.22-0.7,0.7v11.76c0,0.47,0.22,0.7,0.7,0.7h0.5c0.47,0,0.7-0.22,0.7-0.7v-4.74H196.71z"/>
		<path class="st2" d="M203.87,29.01v-7.85h3.9v19.5h-3.9v-8.16h-1.95v8.16h-3.9v-19.5h3.9v7.85H203.87z"/>
		<path class="st2" d="M213.1,40.65h-3.9v-19.5h3.9V40.65z"/>
		<path class="st2" d="M221.76,21.15v3.48h-3.34v4.37h3.2v3.48h-3.2v4.68h3.4v3.48h-7.3v-19.5H221.76z"/>
		<path class="st2" d="M225.13,40.65l-2.62-19.5h3.95L227.83,35l1.42-13.84h3.62l-2.62,19.5H225.13z"/>
		<path class="st2" d="M240.96,21.15v3.48h-3.34v4.37h3.2v3.48h-3.2v4.68h3.4v3.48h-7.3v-19.5H240.96z"/>
		<path class="st2" d="M245.39,27.76v12.9h-3.12v-19.5h5.63l1.11,11.81l1.2-11.81h5.65v19.5h-3.84V27.89l-1.48,12.76h-3.68
			L245.39,27.76z"/>
		<path class="st2" d="M264.5,21.15v3.48h-3.34v4.37h3.2v3.48h-3.2v4.68h3.4v3.48h-7.3v-19.5H264.5z"/>
		<path class="st2" d="M271.55,40.65l-2.48-10.61l0.06,4.96l0.06,5.65h-3.37v-19.5h3.98l2.26,9.67l-0.06-5.63l-0.03-4.04h3.37v19.5
			H271.55z"/>
		<path class="st2" d="M278.68,40.65V24.64h-2.37v-3.48h8.64v3.48h-2.37v16.02H278.68z"/>
	</g>
	<g>
		<path class="st2" d="M103.8,57.06v3.59c0,2.42-1.2,3.62-3.62,3.62H98c-2.42,0-3.62-1.2-3.62-3.62V56.5h3.82v3.79
			c0,0.47,0.22,0.7,0.7,0.7h0.36c0.47,0,0.7-0.22,0.7-0.7v-2.34c0-0.61-0.2-0.92-0.67-1.25l-3.34-2.48
			c-1.2-0.86-1.56-1.67-1.56-3.06v-3.09c0-2.42,1.2-3.62,3.62-3.62h2.12c2.42,0,3.62,1.2,3.62,3.62v3.57h-3.82v-3.2
			c0-0.47-0.22-0.7-0.7-0.7h-0.31c-0.47,0-0.7,0.22-0.7,0.7v1.84c0,0.61,0.2,0.92,0.67,1.25l3.34,2.48
			C103.43,54.85,103.8,55.61,103.8,57.06z"/>
		<path class="st2" d="M114.55,60.65c0,2.42-1.2,3.62-3.62,3.62h-2.37c-2.42,0-3.62-1.2-3.62-3.62V44.6h3.9v15.63
			c0,0.47,0.22,0.7,0.7,0.7h0.42c0.47,0,0.7-0.22,0.7-0.7V44.6h3.9V60.65z"/>
		<path class="st2" d="M119.04,51.21v12.9h-3.12V44.6h5.63l1.11,11.81l1.2-11.81h5.65v19.5h-3.84V51.34l-1.48,12.76h-3.68
			L119.04,51.21z"/>
		<path class="st2" d="M134.03,51.21v12.9h-3.12V44.6h5.63l1.11,11.81l1.2-11.81h5.65v19.5h-3.84V51.34l-1.48,12.76h-3.68
			L134.03,51.21z"/>
		<path class="st2" d="M149.82,64.1h-3.9V44.6h3.9V64.1z"/>
		<path class="st2" d="M153.19,64.1V48.09h-2.37V44.6h8.63v3.48h-2.37V64.1H153.19z"/>
	</g>
</g>
<g class="st3">
	
		<text transform="matrix(1 0 0 1 105.4635 119.6658)" style="display:inline;fill:#EF5A24; font-family:'Tungsten-Bold'; font-size:23px;">WEALTH &amp; ACHIEVEMENT</text>
	
		<text transform="matrix(1 0 0 1 105.4636 139.0239)" style="display:inline;fill:#EF5A24; font-family:'Tungsten-Bold'; font-size:23px;">SUMMIT</text>
</g>
</svg>
