<?xml version="1.0" encoding="utf-8"?>
<!-- Generator: Adobe Illustrator 24.0.2, SVG Export Plug-In . SVG Version: 6.00 Build 0)  -->
<svg version="1.1" xmlns="http://www.w3.org/2000/svg" xmlns:xlink="http://www.w3.org/1999/xlink" x="0px" y="0px"
	 viewBox="0 0 148 212" style="enable-background:new 0 0 148 212;" xml:space="preserve">
<style type="text/css">
	.st0{fill:#154A8C;}
	.st1{fill:#FFFFFF;}
</style>
<g id="Layer_1">
	<path class="st0" d="M0,0h148v212l-74.4-20L0,212V0z"/>
</g>
<g id="Layer_2">
	<path class="st1" d="M43.49,142.6v-9.84H29.82V101.8h-10.2v40.8H43.49z"/>
	<path class="st1" d="M48.66,142.6h10.2v-40.8h-10.2V142.6z"/>
	<path class="st1" d="M77.27,142.6h11.4l15-40.8h-11.4l-9.3,29.04l-9.3-29.04h-11.4L77.27,142.6z"/>
	<path class="st1" d="M130.97,142.6v-9.84h-13.68v-5.82h12.48v-9.84h-12.48v-5.46h13.68v-9.84H107.1v40.8H130.97z"/>
	<path class="st1" d="M15.66,162.06c0,2.26,1.6,4.34,4.78,4.34c1.6,0,2.8-0.6,3.76-1.38l0.92,1.16h4.06l-2.84-3.34l1.64-1.74v-4.44
		l-3.62,3.82l-1.2-1.4c1.18-0.6,2.14-1.5,2.14-3.24c0-2.08-1.46-3.46-3.74-3.46c-2.26,0-3.8,1.44-3.8,3.38
		c0,0.88,0.44,1.6,0.78,2.02l0.08,0.12C17.1,158.56,15.66,159.66,15.66,162.06z M20.44,163.3c-0.94,0-1.46-0.72-1.46-1.48
		c0-0.8,0.6-1.26,1.44-1.62l1.86,2.36C21.74,162.98,21.1,163.3,20.44,163.3z M21.24,156.8c-0.22-0.32-0.36-0.52-0.36-0.84
		c0-0.4,0.28-0.68,0.68-0.68c0.42,0,0.62,0.28,0.62,0.7c0,0.42-0.34,0.68-0.86,0.92L21.24,156.8z"/>
	<path class="st1" d="M34.64,166.18h3.4v-13.6h-3.4V166.18z"/>
	<path class="st1" d="M48.94,166.18h3.4v-13.6h-3.4v7.68l-5.04-7.68h-4v0.22l0.94,1.56v11.82h3.4v-6.92L48.94,166.18z"/>
	<path class="st1" d="M60.26,160.9v-3.08h-5.54v3.08H60.26z"/>
	<path class="st1" d="M62.64,166.18h3.4v-4.76h1.56c2.72,0,4.6-1.66,4.6-4.42c0-2.76-1.88-4.42-4.6-4.42h-4.96V166.18z M68.7,157
		c0,0.74-0.48,1.14-1.14,1.14h-1.52v-2.28h1.52C68.22,155.86,68.7,156.26,68.7,157z"/>
	<path class="st1" d="M81.98,166.18v-3.28h-4.56v-1.94h4.16v-3.28h-4.16v-1.82h4.56v-3.28h-7.96v13.6H81.98z"/>
	<path class="st1" d="M84.36,166.18h3.4v-4.76h0.34c1.62,0,2.5,2.02,2.9,4.76h3.54c-0.24-2.76-1.06-5.2-2.82-6.14
		c1.24-0.4,2.3-1.5,2.3-3.42c0-2.6-1.88-4.04-4.6-4.04h-5.06V166.18z M90.52,157c0,0.74-0.46,1.14-1.12,1.14h-1.64v-2.28h1.64
		C90.06,155.86,90.52,156.26,90.52,157z"/>
	<path class="st1" d="M103.68,152.92c-0.88-0.36-1.96-0.56-2.9-0.56c-3.76,0-4.98,2.18-4.98,4.16c0,1.62,0.56,2.84,2.46,3.92
		l1.62,0.92c0.64,0.36,0.9,0.66,0.9,0.98c0,0.58-0.46,0.88-1.26,0.88c-1.2,0-2.6-0.58-3.34-1.16v3.7c0.9,0.36,2.18,0.64,3.48,0.64
		c3.3,0,4.74-2.02,4.74-4.26c0-1.58-0.74-2.84-2.54-3.88l-1.54-0.88c-0.56-0.32-0.88-0.66-0.88-0.98c0-0.46,0.34-0.86,1.32-0.86
		c0.98,0,2.24,0.48,2.92,0.92V152.92z"/>
	<path class="st1" d="M105.58,159.38c0,3.98,3.02,7.02,7,7.02c3.98,0,7-3.04,7-7.02c0-3.98-3.02-7.02-7-7.02
		C108.6,152.36,105.58,155.4,105.58,159.38z M109.08,159.38c0-1.98,1.5-3.62,3.5-3.62c1.98,0,3.5,1.64,3.5,3.62
		c0,2-1.52,3.62-3.5,3.62C110.58,163,109.08,161.38,109.08,159.38z"/>
	<path class="st1" d="M129.68,166.18h3.4v-13.6h-3.4v7.68l-5.04-7.68h-4v0.22l0.94,1.56v11.82h3.4v-6.92L129.68,166.18z"/>
	<path class="st1" d="M34.93,45.93h1.45v-7.5h2.2c2.3,0,4.77,3,5.62,7.5h1.5c-0.72-4.22-2.7-7.05-4.7-7.92
		c2.12-0.5,3.72-1.92,3.72-4.4c0-2.9-2.13-4.67-5.2-4.67h-4.6V45.93z M43.2,33.71c0,2.17-1.58,3.38-3.7,3.38h-3.13v-6.8h3.13
		C41.63,30.28,43.2,31.56,43.2,33.71z"/>
	<path class="st1" d="M47.68,37.43c0,4.97,3.77,8.75,8.75,8.75s8.75-3.77,8.75-8.75s-3.77-8.75-8.75-8.75S47.68,32.46,47.68,37.43z
		 M49.2,37.43c0-4.13,3.1-7.32,7.22-7.32s7.25,3.2,7.25,7.32c0,4.12-3.13,7.32-7.25,7.32S49.2,41.56,49.2,37.43z"/>
	<path class="st1" d="M68.73,45.93h4.87c2.95,0,5.27-1.6,5.27-4.57c0-2.17-1.32-3.62-3.17-4.2c1.55-0.63,2.6-1.93,2.6-3.88
		c0-2.72-2.2-4.35-4.97-4.35h-4.6V45.93z M77.35,41.26c0,2.3-1.75,3.32-3.75,3.32h-3.42v-6.72h3.42
		C75.6,37.86,77.35,38.93,77.35,41.26z M76.8,33.41c0,2.17-1.63,3.1-3.47,3.1h-3.15v-6.22h3.15C75.18,30.28,76.8,31.26,76.8,33.41z"
		/>
	<path class="st1" d="M91.35,45.93v-1.35h-7.42v-6.52h6.92v-1.35h-6.92v-6.42h7.42v-1.35h-8.87v17H91.35z"/>
	<path class="st1" d="M95.45,45.93h1.45v-7.5h2.2c2.3,0,4.77,3,5.62,7.5h1.5c-0.72-4.22-2.7-7.05-4.7-7.92
		c2.13-0.5,3.72-1.92,3.72-4.4c0-2.9-2.13-4.67-5.2-4.67h-4.6V45.93z M103.73,33.71c0,2.17-1.57,3.38-3.7,3.38H96.9v-6.8h3.13
		C102.15,30.28,103.73,31.56,103.73,33.71z"/>
	<path class="st1" d="M111.85,45.93h1.45V30.28h4.7v-1.35h-10.9v1.35h4.75V45.93z"/>
	<path class="st1" d="M27.97,68.93h1.45v-5.75l2.55-3.12l5.05,8.87h1.75l-5.82-10.05l5.57-6.95h-1.78l-7.32,9.05v-9.05h-1.45V68.93z
		"/>
	<path class="st1" d="M41.49,68.93h1.45v-17h-1.45V68.93z"/>
	<path class="st1" d="M51.57,68.93h1.45v-7.6l5.75-9.4h-1.7l-4.77,7.9l-4.78-7.9h-1.67l5.72,9.4V68.93z"/>
	<path class="st1" d="M59.32,60.43c0,4.97,3.77,8.75,8.75,8.75s8.75-3.77,8.75-8.75c0-4.97-3.77-8.75-8.75-8.75
		S59.32,55.46,59.32,60.43z M60.84,60.43c0-4.13,3.1-7.32,7.22-7.32s7.25,3.2,7.25,7.32c0,4.12-3.13,7.32-7.25,7.32
		S60.84,64.56,60.84,60.43z"/>
	<path class="st1" d="M87.94,52.71c-0.85-0.55-2.07-1.03-3.65-1.03c-3.57,0-5.02,2.15-5.02,4.22c0,1.57,0.67,2.77,2.47,3.9l3.25,2.1
		c1.4,0.9,2.07,1.85,2.07,2.92c0,1.52-1.25,2.95-3.68,2.95c-1.85,0-3.22-0.78-4.1-1.53v1.8c0.93,0.55,2.35,1.13,4.12,1.13
		c3.4,0,5.2-2.1,5.2-4.4c0-1.73-0.73-2.9-2.8-4.2l-3.3-2.13c-1.17-0.78-1.7-1.55-1.7-2.6c0-1.67,1.35-2.77,3.4-2.77
		c1.5,0,2.78,0.58,3.72,1.38V52.71z"/>
	<path class="st1" d="M102.89,68.93h1.63l-6.45-17h-1.63l-6.45,17h1.63l1.97-5.32h7.27L102.89,68.93z M97.24,53.83l3.15,8.4h-6.32
		L97.24,53.83z"/>
	<path class="st1" d="M107.34,68.93h1.45v-5.75l2.55-3.12l5.05,8.87h1.75l-5.82-10.05l5.57-6.95h-1.78l-7.32,9.05v-9.05h-1.45V68.93
		z"/>
	<path class="st1" d="M120.87,68.93h1.45v-17h-1.45V68.93z"/>
	<path class="st1" d="M18.15,87.36c0,2.12,1.55,4.82,5.12,4.82c2.2,0,4.17-1.5,5.62-3.1l2.32,2.85H33l-3.2-3.9l3.02-3.63v-2.02
		l-3.92,4.55l-3.95-4.82c1.85-0.9,3.5-1.88,3.5-3.95c0-1.65-1.2-3.47-3.55-3.47c-2.2,0-3.75,1.6-3.75,3.47c0,1.2,0.75,2.3,1.57,3.35
		l0.1,0.13C20.53,82.71,18.15,84.08,18.15,87.36z M23.25,90.81c-2.35,0-3.62-1.92-3.62-3.5c0-2.52,1.97-3.65,4.05-4.62L28,88.01
		C26.7,89.48,24.95,90.81,23.25,90.81z M23.98,80.91c-0.6-0.75-1.4-1.78-1.4-2.7c0-1.25,0.9-2.2,2.35-2.2c1.4,0,2.1,1.2,2.1,2.2
		c0,1.38-1.32,2.13-2.92,2.85L23.98,80.91z"/>
	<path class="st1" d="M50.8,84.71v-1.35h-6.92v-7.07h7.42v-1.35h-8.87v17h1.45v-7.22H50.8z"/>
	<path class="st1" d="M54.8,91.93h1.45v-7.5h2.2c2.3,0,4.77,3,5.62,7.5h1.5c-0.72-4.22-2.7-7.05-4.7-7.92
		c2.12-0.5,3.72-1.92,3.72-4.4c0-2.9-2.12-4.67-5.2-4.67h-4.6V91.93z M63.08,79.71c0,2.18-1.57,3.38-3.7,3.38h-3.12v-6.8h3.12
		C61.5,76.28,63.08,77.56,63.08,79.71z"/>
	<path class="st1" d="M68.9,91.93h1.45v-17H68.9V91.93z"/>
	<path class="st1" d="M83.98,91.93v-1.35h-7.42v-6.52h6.92v-1.35h-6.92v-6.42h7.42v-1.35H75.1v17H83.98z"/>
	<path class="st1" d="M99.7,91.93h1.45v-17H99.7v14.55L88.8,74.93H87v0.15l1.15,1.68v15.17h1.45V78.56L99.7,91.93z"/>
	<path class="st1" d="M105.9,91.93h5.82c5.02,0,8.27-3.52,8.27-8.5c0-4.98-3.25-8.5-8.27-8.5h-5.82V91.93z M111.7,76.28
		c4.17,0,6.8,3.02,6.8,7.15c0,4.12-2.62,7.15-6.8,7.15h-4.35v-14.3H111.7z"/>
	<path class="st1" d="M131.28,75.71c-0.85-0.55-2.07-1.02-3.65-1.02c-3.57,0-5.02,2.15-5.02,4.22c0,1.57,0.68,2.78,2.47,3.9
		l3.25,2.1c1.4,0.9,2.07,1.85,2.07,2.92c0,1.52-1.25,2.95-3.68,2.95c-1.85,0-3.22-0.78-4.1-1.53v1.8c0.92,0.55,2.35,1.13,4.12,1.13
		c3.4,0,5.2-2.1,5.2-4.4c0-1.73-0.73-2.9-2.8-4.2l-3.3-2.12c-1.17-0.77-1.7-1.55-1.7-2.6c0-1.67,1.35-2.77,3.4-2.77
		c1.5,0,2.78,0.58,3.72,1.38V75.71z"/>
</g>
</svg>
