<svg id="692ce9ea-b81d-4cfe-a27f-765c5252c25a" data-name="icon" xmlns="http://www.w3.org/2000/svg" viewBox="0 0 100 109"><title>gesture--scroll-x</title><line x1="50.72" y1="21.17" x2="20.72" y2="21.17" style="fill:none;stroke:#ec6864;stroke-linecap:round;stroke-miterlimit:10;stroke-width:3px"/><polyline points="47.72 11.17 53.72 21.17 47.72 31.17" style="fill:none;stroke:#ec6864;stroke-linecap:round;stroke-miterlimit:10;stroke-width:3px"/><line x1="9.72" y1="39.55" x2="39.72" y2="39.55" style="fill:none;stroke:#ec6864;stroke-linecap:round;stroke-miterlimit:10;stroke-width:3px"/><polyline points="12.72 29.55 6.72 39.55 12.72 49.55" style="fill:none;stroke:#ec6864;stroke-linecap:round;stroke-miterlimit:10;stroke-width:3px"/><polyline points="68.26 48.72 89.86 61.91 83.21 86.73 74.25 94.69 72.72 100.38" style="fill:none;stroke:#231916;stroke-linecap:round;stroke-linejoin:round;stroke-width:3px"/><line x1="74.65" y1="54.56" x2="72.06" y2="64.23" style="fill:none;stroke:#231916;stroke-linecap:round;stroke-miterlimit:10;stroke-width:3px"/><line x1="82.02" y1="59.13" x2="79.44" y2="68.73" style="fill:none;stroke:#231916;stroke-linecap:round;stroke-miterlimit:10;stroke-width:3px"/><path d="M64.67,59.72l6.16-23A5,5,0,0,0,67.3,30.6h0a5,5,0,0,0-6.12,3.54l-7,26.21a4.53,4.53,0,0,1-5.54,3.2l-.27-.07-2.43-5a5.49,5.49,0,0,0-7.33-2.57l-.92.44a5.49,5.49,0,0,0-2.57,7.33L46.43,87.23l-1.53,5.7" style="fill:none;stroke:#231916;stroke-linecap:round;stroke-linejoin:round;stroke-width:3px"/></svg>