<?xml version="1.0" encoding="utf-8"?>
<!-- Generator: Adobe Illustrator 24.0.2, SVG Export Plug-In . SVG Version: 6.00 Build 0)  -->
<svg version="1.1" id="Isolation_Mode" xmlns="http://www.w3.org/2000/svg" xmlns:xlink="http://www.w3.org/1999/xlink" x="0px"
	 y="0px" viewBox="0 0 1837.53 1775.25" style="enable-background:new 0 0 1837.53 1775.25;" xml:space="preserve">
<style type="text/css">
	.st0{fill:#0e529e;}
</style>
<path class="st0" d="M714.26,1724.3c11.52-32.38-4.16-69.32-36.43-95.27c19.83-49.55,48.12-102.91,70.45-142.34
	c45.18,10.53,92.26,16.09,140.69,15.74c6.05-0.04,12.02-0.36,18.02-0.59c8.78,32.38,18.85,74.37,23.95,112.39
	c-28.38,13.02-46.67,37.11-44.21,62.92c3.36,35.49,44.62,60.61,92.12,56.1c47.51-4.49,83.31-36.92,79.95-72.41
	c-2.45-25.79-24.93-46.04-55.24-53.48c-2.19-39.25-0.03-83.55,2.59-117.32c42.52-8.75,83.33-22.06,122.01-39.3
	c29.33,34.53,67.12,81.62,95.9,126.55c-26.82,31.55-35.29,70.77-17.89,100.4c23.94,40.78,87.61,47.87,142.22,15.82
	c54.58-32.04,79.44-91.11,55.51-131.87c-17.4-29.64-55.78-41.37-96.4-33.33c-25.2-47.04-47.91-103.02-63.75-145.47
	c55.2-41.43,103.01-92.14,141.09-149.83c31.57,14.32,75.03,35.48,110.88,58.2c-8.28,30.11-1.57,59.61,19.78,74.31
	c29.34,20.23,75.11,4.78,102.19-34.51c27.1-39.29,25.27-87.56-4.08-107.8c-21.33-14.71-51.29-10.49-76.48,7.94
	c-38.03-28.45-77.62-66.51-102.14-91.24c23.34-54.24,38.89-112.58,45.25-173.65c44.58-8.14,104.3-17.34,157.63-19.8
	c13.91,39,43.65,65.95,78.02,65.7c47.29-0.34,85.26-51.94,84.8-115.25c-0.46-63.31-39.17-114.35-86.45-114.01
	c-34.37,0.25-63.71,27.61-77.06,66.82c-53.36-1.7-113.21-10.03-157.9-17.53c-6.41-54.04-20.06-105.8-39.85-154.41
	c27.4-19.29,63.35-43.08,97.28-60.84c21.94,22.22,50.84,31.15,74.25,20.03c32.19-15.3,41.69-62.66,21.22-105.76
	c-20.48-43.11-63.2-65.65-95.39-50.36c-23.41,11.12-34.74,39.17-31.37,70.2c-36.12,15.47-78.47,28.58-111.09,37.68
	c-22.6-36.51-49.13-70.29-78.79-101.02c22.42-39.4,53.79-91.11,86.21-133.58c38.82,14.41,78.57,8.96,100.47-17.53
	c30.14-36.45,15.02-98.7-33.77-139.04c-48.79-40.35-112.78-43.5-142.91-7.06c-21.9,26.48-19.79,66.56,1.65,101.98
	c-35.59,39.78-80.41,80.25-114.89,109.66c-44.27-28.98-92.61-52.18-143.94-68.71c2.84-33.4,7.73-76.21,15.92-113.62
	c31.12-2.52,56.54-18.92,63.07-44c8.97-34.5-21.19-72.21-67.38-84.24c-46.19-12.02-90.92,6.21-99.9,40.71
	c-6.53,25.08,7.68,51.79,33.62,69.16c-11.37,37.62-28.55,78.48-42.55,109.33c-29.62-4.28-59.93-6.41-90.76-6.18
	c-12.55,0.09-24.96,0.7-37.29,1.54c-15.77-42.49-35.2-99.74-46.89-151.84c35.99-20.48,57.36-54.44,51.15-88.24
	c-8.55-46.51-65.96-74.94-128.22-63.5c-62.27,11.44-105.83,58.42-97.27,104.93c6.21,33.8,38.25,57.95,79.17,64.28
	c7.6,52.82,9.79,113.17,10.16,158.48c-51.69,15.63-100.42,37.98-145.14,66.14c-23.77-23.64-53.43-54.91-76.82-85.23
	c18.07-25.46,21.85-55.47,6.83-76.6c-20.65-29.05-68.93-30.18-107.83-2.53c-38.9,27.66-53.68,73.64-33.02,102.69
	c15.01,21.13,44.6,27.41,74.58,18.7c21.55,32.96,41.87,72.5,56.5,103.08c-31.93,28.47-60.83,60.24-86.05,94.88
	c-42.67-15.23-98.97-37.13-146.38-61.66c7.45-40.74-4.82-78.94-34.71-95.9c-41.12-23.34-99.81,2.36-131.06,57.41
	c-31.26,55.05-23.25,118.62,17.86,141.97c29.89,16.97,69,7.93,100.15-19.34c45.33,28.13,92.97,65.24,127.92,94.07
	c-20.7,48.32-35.24,99.87-42.61,153.71c-33.38,3.01-76.41,5.63-114.67,4.06c-7.89-30.21-28.45-52.4-54.29-54.47
	c-35.52-2.85-67.43,33.41-71.25,80.99c-3.82,47.57,21.9,88.46,57.44,91.3c25.83,2.08,49.67-16.55,62.27-45.11
	c39.12,4.67,82.48,14.54,115.31,22.99c1.29,43.65,7.2,86.09,17.33,126.89c-39.1,22.91-92.06,51.95-141.32,72.5
	c-26.41-31.89-63.58-47.05-95.77-35.06c-44.31,16.49-62.35,77.97-40.27,137.3c22.07,59.33,75.92,94.06,120.23,77.58
	c32.21-11.99,50.42-47.75,49.57-89.14c50.69-16.65,109.76-29.29,154.32-37.54c24.26,47.87,54.71,92.02,90.37,131.39
	c-19.17,27.52-44.83,62.2-70.65,90.52c-28.22-13.37-58.43-11.89-76.62,6.57c-25.02,25.39-17.75,73.13,16.24,106.64
	c33.98,33.51,81.84,40.08,106.86,14.7c18.19-18.45,19.25-48.69,5.46-76.7c28.71-26.95,64.1-53.81,91.68-73.52
	c33.44,26.44,69.75,49.38,108.4,68.27c-7.6,44.67-19.38,103.91-35.29,154.84c-41.41-0.27-76.91,18.46-88.42,50.83
	c-15.85,44.55,19.65,97.88,79.3,119.1C637.19,1787.77,698.42,1768.85,714.26,1724.3z M719.16,528.69
	C718.69,463,771.54,409.37,837.23,408.9c65.69-0.47,119.32,52.39,119.79,118.08c0.47,65.68-52.39,119.31-118.08,119.79
	C773.26,647.24,719.63,594.38,719.16,528.69z M432.52,723.69c-0.37-51.37,40.97-93.31,92.34-93.68
	c51.37-0.37,93.32,40.97,93.69,92.34c0.37,51.37-40.97,93.32-92.34,93.69C474.83,816.41,432.89,775.07,432.52,723.69z
	 M1064.29,816.2c-0.61-85.38,68.1-155.11,153.49-155.72c85.39-0.61,155.11,68.11,155.73,153.49
	c0.62,85.39-68.11,155.11-153.5,155.73C1134.62,970.31,1064.9,901.59,1064.29,816.2z M467.19,1130.09
	c-0.53-74.12,59.88-134.66,134.96-135.2c75.06-0.54,136.35,59.12,136.88,133.24c0.54,74.13-59.89,134.66-134.94,135.2
	C529.01,1263.87,467.73,1204.22,467.19,1130.09z M873.58,1230.45c-0.56-76.94,61.37-139.76,138.32-140.32
	c76.95-0.55,139.76,61.37,140.32,138.31c0.55,76.95-61.36,139.77-138.31,140.32C936.96,1369.31,874.14,1307.4,873.58,1230.45z"/>
</svg>
