<?xml version="1.0" encoding="utf-8"?>
<!-- Generator: Adobe Illustrator 24.0.2, SVG Export Plug-In . SVG Version: 6.00 Build 0)  -->
<svg version="1.1" id="_x2014_ÎÓÈ_x5F_1" xmlns="http://www.w3.org/2000/svg" xmlns:xlink="http://www.w3.org/1999/xlink"
	 x="0px" y="0px" viewBox="0 0 97.53 90.68" style="enable-background:new 0 0 97.53 90.68;" xml:space="preserve">
<style type="text/css">
	.st0{fill-rule:evenodd;clip-rule:evenodd;fill:#0e529e;}
</style>
<g>
	<path class="st0" d="M72.94,0h24.33c1.93,26.47-7.15,42.43-27.25,47.86c-1.59,2.66-3.4,5.15-5.43,7.48
		c-7.63,8.84-10.98,15.69-10.07,20.53c0.48,4.9,3.97,7.54,10.45,7.93c5.02,0.31,7.42,2.6,7.22,6.87H25.34
		c-0.21-4.27,2.2-6.56,7.22-6.87c6.48-0.39,9.97-3.04,10.45-7.93c0.92-4.84-2.44-11.69-10.07-20.53c-2.03-2.33-3.85-4.83-5.43-7.48
		C7.4,42.43-1.68,26.47,0.25,0h24.33c-0.13,1.64-0.23,3.25-0.3,4.83h48.95C73.17,3.25,73.06,1.64,72.94,0z M19.45,4.83H4.85
		c-0.41,18.54,6.1,30.84,19.52,36.88C19.94,31.47,18.3,19.18,19.45,4.83z M48.79,17.07l-4.45,9.38L34,27.83L41.5,35l-1.93,10.25
		l9.22-4.93l9.2,4.93L56.07,35l7.48-7.17l-10.32-1.38L48.79,17.07z M73.15,41.72c13.42-6.05,19.92-18.34,19.52-36.88h-14.6
		C79.23,19.18,77.59,31.47,73.15,41.72z"/>
</g>
</svg>
