<?xml version="1.0" encoding="utf-8"?>
<!-- Generator: Adobe Illustrator 24.0.2, SVG Export Plug-In . SVG Version: 6.00 Build 0)  -->
<svg version="1.1" id="_x2014_ÎÓÈ_x5F_1" xmlns="http://www.w3.org/2000/svg" xmlns:xlink="http://www.w3.org/1999/xlink"
	 x="0px" y="0px" viewBox="0 0 229.64 202.59" style="enable-background:new 0 0 229.64 202.59;" xml:space="preserve">
<style type="text/css">
	.st0{fill:#ffffff;}
	.st1{fill:#ffffff;}
</style>
<g>
	<path class="st0" d="M94.75,154c-0.19,0-0.34-0.06-0.48-0.2L28.83,88.35c-0.14-0.14-0.2-0.28-0.2-0.46c0-0.19,0.06-0.34,0.2-0.47
		l19.29-19.29c0.13-0.13,0.28-0.2,0.47-0.2c0.18,0,0.33,0.06,0.45,0.19l45.7,45.7L206.71,1.86c0.14-0.14,0.28-0.2,0.46-0.2
		c0.18,0,0.34,0.06,0.47,0.2l19.29,19.29c0.13,0.13,0.2,0.29,0.2,0.47c0,0.18-0.06,0.33-0.19,0.45L95.21,153.81
		C95.09,153.94,94.93,154,94.75,154z"/>
	<path class="st1" d="M182.72,83.95v89.95c0,6.53-5.31,11.84-11.84,11.84H28.69c-6.53,0-11.84-5.31-11.84-11.84V92.11
		c-0.46-1.34-0.71-2.76-0.71-4.22c0-1.46,0.25-2.89,0.71-4.23V31.7c0-6.53,5.31-11.84,11.84-11.84h142.19c0.05,0,0.1,0.01,0.15,0.01
		l13.44-13.43c-4.05-2.18-8.67-3.43-13.59-3.43H28.69C12.87,3.01,0,15.88,0,31.7V173.9c0,15.82,12.87,28.69,28.69,28.69h142.19
		c15.82,0,28.69-12.87,28.69-28.69V67.09L182.72,83.95z"/>
</g>
</svg>
