<?xml version="1.0" encoding="utf-8"?>
<!-- Generator: Adobe Illustrator 24.0.2, SVG Export Plug-In . SVG Version: 6.00 Build 0)  -->
<svg version="1.1" id="_x2014_ÎÓÈ_x5F_1" xmlns="http://www.w3.org/2000/svg" xmlns:xlink="http://www.w3.org/1999/xlink"
	 x="0px" y="0px" viewBox="0 0 107.55 93.43" style="enable-background:new 0 0 107.55 93.43;" xml:space="preserve">
<style type="text/css">
	.st0{fill-rule:evenodd;clip-rule:evenodd;fill:#0e529e;}
</style>
<g>
	<g>
		<path class="st0" d="M37.77,27.43c0.06,0.45,0.1,0.92,0.12,1.42c0,0.02,0,0.05,0,0.07h8.05c1.7,0,3.15,0.6,4.35,1.8
			c1.19,1.2,1.79,2.65,1.78,4.35c0,1.69-0.59,3.13-1.78,4.32c-0.09,0.1-0.19,0.19-0.28,0.28c0.95,1.11,1.42,2.42,1.42,3.93
			c0,1.7-0.6,3.14-1.8,4.33c-0.29,0.29-0.6,0.55-0.92,0.77c0.69,1,1.03,2.15,1.03,3.43c0,1.7-0.59,3.14-1.78,4.33
			c-0.52,0.52-1.09,0.92-1.7,1.22c0.5,0.9,0.75,1.91,0.75,3.02c0,1.69-0.59,3.13-1.78,4.32c-0.59,0.59-1.23,1.03-1.93,1.33
			c-0.12,0.05-0.26,0.1-0.4,0.15c-0.61,0.14-1.38,0.23-2.32,0.25c-0.04,0-0.09,0-0.13,0H27.75c-3.78-0.09-7.78-0.51-12-1.28
			c-1.39-0.25-2.81-0.54-4.25-0.87c-1.05-0.24-2.12-0.5-3.2-0.78c-0.14-0.04-0.29-0.08-0.43-0.12c-0.3-0.07-0.6-0.14-0.88-0.22
			c-0.9-0.24-1.72-0.53-2.45-0.87c-3.1-1.44-4.61-3.78-4.52-7.02L0,40.67c0.01-0.05,0.01-0.09,0.02-0.13
			c0.04-0.94,0.22-1.8,0.55-2.6c0.48-1.13,1.25-2.12,2.33-2.97c0.01,0,0.02-0.01,0.03-0.02c0.23-0.18,0.46-0.35,0.72-0.52
			l15.98-11.31c1.71-1.14,3.82-1.73,6.32-1.78h3.78c0.28-0.01,0.57-0.01,0.87,0l0.67,0.03c2.48,0.24,4.29,1.28,5.43,3.1l0.2,0.35
			c0.06,0.11,0.11,0.21,0.17,0.32c0.32,0.65,0.53,1.27,0.63,1.85C37.73,27.13,37.75,27.28,37.77,27.43z"/>
	</g>
	<g>
		<path class="st0" d="M103.92,34.43c0.25,0.17,0.48,0.34,0.7,0.52c0.01,0,0.02,0.01,0.03,0.02c1.08,0.84,1.86,1.83,2.33,2.97
			c0.34,0.8,0.53,1.66,0.57,2.6c0,0.04,0,0.09,0,0.13V55.6c0.09,3.23-1.42,5.57-4.52,7.02c-0.73,0.34-1.55,0.63-2.45,0.87
			c-0.29,0.08-0.59,0.15-0.9,0.22c-0.14,0.04-0.28,0.08-0.42,0.12c-1.09,0.28-2.16,0.54-3.22,0.78c-1.44,0.33-2.86,0.61-4.25,0.87
			c-4.22,0.77-8.22,1.2-12,1.28c-0.31,0.01-0.61,0.01-0.92,0.02c-0.19,0-0.38,0-0.57,0c-0.41,0-0.81-0.01-1.22-0.02
			c0.9-1.36,1.35-2.92,1.35-4.65c0-0.96-0.14-1.87-0.42-2.72c-0.2-0.59-0.46-1.15-0.78-1.69l-0.02-0.03
			c-0.06-0.11-0.13-0.21-0.2-0.32c0.07-0.1,0.15-0.21,0.22-0.32v-0.02c0.17-0.29,0.33-0.58,0.47-0.88c0.48-1.07,0.72-2.25,0.73-3.52
			c-0.01-1.63-0.41-3.09-1.2-4.4V48.2c-0.01-0.02-0.02-0.03-0.03-0.05c-0.03-0.04-0.06-0.09-0.08-0.13l-0.1-0.13
			c0.07-0.1,0.15-0.21,0.22-0.32v-0.02c0.17-0.29,0.33-0.58,0.47-0.88c0.48-1.07,0.72-2.25,0.73-3.52v-0.02
			c0-0.15-0.01-0.3-0.02-0.45c0.53-0.56,1.02-1.21,1.47-1.97c0.02-0.03,0.03-0.05,0.05-0.08c-0.01,0.01-0.02,0.02-0.03,0.03
			c0.01-0.02,0.02-0.05,0.03-0.07c0.01-0.01,0.01-0.02,0.02-0.03c0.02-0.02,0.03-0.04,0.05-0.06l0.02-0.02
			c0.02-0.03,0.03-0.07,0.05-0.1c0.62-1.09,1.13-2.42,1.53-4l0.72,0.77c0,0.03-0.01,0.07-0.02,0.1l-0.08,0.72
			c-0.56,4.68,0.66,8.78,3.65,12.32c1.21,1.43,2.71,2.76,4.5,4l0.17-0.17c0.33-0.38,0.32-0.76-0.03-1.15l-0.03-0.03
			c-3.62-3.79-5.34-8.06-5.15-12.82c0.06-1.36,0.27-2.75,0.63-4.18c0.03-0.14,0.07-0.28,0.1-0.42l-4.02-4.35H78.6
			c-0.06,0.6-0.13,1.17-0.22,1.72c-0.03,0.16-0.05,0.31-0.08,0.47c-0.06,0.36-0.12,0.71-0.18,1.05c0,0.02-0.01,0.05-0.02,0.07v0.02
			c-0.28,1.35-0.64,2.5-1.08,3.45c-0.1,0.2-0.2,0.4-0.3,0.58c-0.02,0.03-0.03,0.06-0.05,0.08h-0.02c-0.03,0.05-0.06,0.1-0.08,0.15
			c-0.67,1.14-1.49,1.92-2.45,2.33c-0.21,0.09-0.43,0.16-0.65,0.22c-0.11,0.03-0.22,0.05-0.33,0.07l-0.33,0.05
			c-0.03,0.01-0.07,0.01-0.1,0.02h-0.03c-0.84-0.04-1.5-0.27-1.98-0.7c-0.47-0.4-0.77-0.98-0.92-1.73v-0.02
			c-0.03-0.16-0.05-0.34-0.07-0.52c-0.01-0.01-0.01-0.02-0.02-0.03c-0.01-0.06-0.01-0.13-0.02-0.2v-0.02c0-0.04,0-0.08,0-0.12v-8.78
			c0-0.02,0-0.03,0-0.05v-0.15c0-0.07,0.01-0.14,0.02-0.2c0-0.02,0-0.04,0-0.07c0.01-0.5,0.05-0.97,0.1-1.42
			c0.02-0.15,0.04-0.3,0.07-0.45c0.11-0.58,0.33-1.2,0.65-1.85c0.05-0.1,0.1-0.21,0.15-0.32l0.2-0.35c1.14-1.82,2.96-2.86,5.45-3.1
			l0.65-0.03c0.29-0.01,0.58-0.01,0.87,0h3.78c2.5,0.05,4.6,0.64,6.32,1.78L103.92,34.43z M57.57,39.67
			c-0.1-0.09-0.19-0.19-0.28-0.28c-1.19-1.19-1.79-2.63-1.78-4.32c0-1.7,0.59-3.15,1.78-4.35c1.2-1.2,2.64-1.8,4.33-1.8h4.2
			c0,0.12,0,0.23,0,0.35v8.83c0,0.03,0,0.07,0,0.1c0,0.15,0.01,0.29,0.02,0.43l0.02,0.08c0,0.02,0,0.03,0,0.05
			c0.02,0.33,0.06,0.65,0.12,0.95l0.02,0.02c0.32,1.72,1.05,3.02,2.17,3.92c1.03,0.98,2.44,1.53,4.23,1.63c0.02,0,0.03,0,0.05,0
			c0.17,0.01,0.35,0.01,0.53,0H73c0.41-0.04,0.8-0.1,1.18-0.18c-0.07,0.15-0.15,0.3-0.23,0.45c-0.1,0.16-0.2,0.32-0.32,0.47
			c-0.13,0.16-0.28,0.32-0.43,0.47c-0.68,0.69-1.46,1.19-2.35,1.5c0.89,0.18,1.67,0.6,2.35,1.28c0.14,0.15,0.28,0.29,0.4,0.45
			c0.13,0.16,0.25,0.32,0.35,0.48c0.43,0.72,0.65,1.52,0.65,2.42c0,0.7-0.13,1.34-0.4,1.93c-0.07,0.17-0.16,0.33-0.25,0.48
			c-0.2,0.33-0.45,0.64-0.75,0.93c-0.68,0.68-1.46,1.18-2.35,1.48c0.66,0.13,1.27,0.4,1.82,0.82c0.18,0.14,0.36,0.3,0.53,0.48
			c0.3,0.29,0.55,0.6,0.75,0.93c0.17,0.29,0.31,0.6,0.42,0.92c0.16,0.47,0.23,0.97,0.23,1.5c0,1.31-0.47,2.42-1.4,3.35
			c-0.7,0.7-1.5,1.13-2.42,1.3h-0.02c-0.19,0.03-0.38,0.06-0.58,0.07c-0.03,0-0.06,0-0.08,0L70,66.83c-0.05,0-0.1,0-0.15,0h-2.4
			c-0.05,0-0.1,0-0.15,0h-0.02c-0.47-0.01-0.9-0.04-1.28-0.08c-0.7-0.08-1.27-0.21-1.72-0.4c-0.7-0.3-1.35-0.75-1.93-1.33
			c-1.2-1.19-1.8-2.63-1.8-4.32c0-1.11,0.25-2.11,0.75-3.02c-0.61-0.29-1.17-0.7-1.68-1.22c-1.19-1.19-1.79-2.64-1.78-4.33
			c0-1.29,0.34-2.43,1.03-3.43c-0.33-0.22-0.64-0.48-0.93-0.77c-1.19-1.19-1.79-2.64-1.78-4.33C56.15,42.09,56.62,40.78,57.57,39.67
			z"/>
	</g>
	<g>
		<path class="st0" d="M37.88,3.42c0.12-0.07,0.25-0.1,0.38-0.1c0.13,0,0.25,0.04,0.37,0.12c0.12,0.07,0.2,0.17,0.27,0.28
			l9.12,17.85c0.09,0.18,0.12,0.36,0.07,0.55c-0.06,0.19-0.18,0.33-0.35,0.43l-2.58,1.5c-0.17,0.1-0.36,0.13-0.55,0.08
			c-0.19-0.05-0.34-0.15-0.45-0.32L33.25,6.98c-0.07-0.11-0.11-0.23-0.12-0.37c0-0.14,0.03-0.28,0.1-0.4
			c0.06-0.11,0.15-0.2,0.27-0.27L37.88,3.42z"/>
	</g>
	<g>
		<path class="st0" d="M57.13,0.78L56.12,20.8c-0.01,0.2-0.09,0.37-0.23,0.5c-0.15,0.14-0.32,0.2-0.52,0.2h-2.98
			c-0.2,0-0.37-0.07-0.52-0.2c-0.14-0.13-0.22-0.3-0.23-0.5L50.62,0.78c-0.01-0.13,0.02-0.26,0.08-0.38
			c0.07-0.13,0.16-0.22,0.28-0.3C51.1,0.03,51.22,0,51.35,0h5.05c0.13,0,0.25,0.03,0.37,0.1c0.12,0.07,0.22,0.17,0.28,0.3
			C57.11,0.52,57.14,0.65,57.13,0.78z"/>
	</g>
	<g>
		<path class="st0" d="M74.52,6.22c0.07,0.13,0.1,0.26,0.1,0.4c0,0.13-0.04,0.25-0.12,0.37L63.6,23.82
			c-0.11,0.17-0.26,0.27-0.45,0.32c-0.19,0.04-0.38,0.02-0.55-0.08l-2.58-1.5c-0.17-0.1-0.28-0.24-0.33-0.43
			c-0.06-0.19-0.04-0.37,0.05-0.55l9.12-17.85C68.91,3.6,69,3.5,69.12,3.43c0.12-0.07,0.25-0.11,0.38-0.12
			c0.13,0,0.25,0.03,0.37,0.1l4.38,2.53C74.36,6.01,74.45,6.1,74.52,6.22z"/>
	</g>
	<g>
		<path class="st0" d="M33.25,86.45l10.9-16.83c0.11-0.16,0.26-0.27,0.45-0.32c0.19-0.05,0.38-0.02,0.55,0.08l2.58,1.5
			c0.17,0.1,0.29,0.24,0.35,0.43c0.05,0.19,0.03,0.37-0.07,0.55L38.9,89.7c-0.06,0.13-0.15,0.22-0.27,0.3
			c-0.11,0.08-0.23,0.11-0.37,0.12c-0.14,0-0.26-0.03-0.38-0.1l-4.38-2.53c-0.11-0.07-0.2-0.16-0.27-0.28
			c-0.07-0.12-0.1-0.25-0.1-0.38C33.14,86.68,33.18,86.56,33.25,86.45z"/>
	</g>
	<g>
		<path class="st0" d="M52.38,71.93h2.98c0.2,0,0.37,0.07,0.52,0.2c0.14,0.13,0.22,0.3,0.23,0.5l1.02,20.01
			c0.01,0.14-0.02,0.26-0.08,0.38c-0.07,0.12-0.16,0.21-0.28,0.28c-0.11,0.07-0.24,0.11-0.37,0.12h-5.05
			c-0.13,0-0.25-0.04-0.37-0.12c-0.12-0.07-0.22-0.16-0.28-0.28c-0.06-0.12-0.09-0.25-0.08-0.38l1.02-20.01
			c0.01-0.2,0.09-0.37,0.23-0.5C52.01,72,52.18,71.93,52.38,71.93z"/>
	</g>
	<g>
		<path class="st0" d="M63.6,69.61l10.9,16.83c0.07,0.11,0.11,0.23,0.12,0.37c0,0.14-0.03,0.26-0.1,0.38
			c-0.06,0.12-0.15,0.21-0.27,0.28l-4.38,2.53c-0.11,0.07-0.24,0.1-0.37,0.1c-0.14,0-0.27-0.04-0.38-0.12
			c-0.12-0.08-0.2-0.17-0.27-0.3l-9.12-17.83c-0.09-0.18-0.11-0.36-0.05-0.55c0.05-0.19,0.17-0.33,0.33-0.43l2.58-1.5
			c0.17-0.1,0.36-0.13,0.55-0.08C63.34,69.34,63.49,69.45,63.6,69.61z"/>
	</g>
</g>
</svg>
