<?xml version="1.0" encoding="utf-8"?>
<!-- Generator: Adobe Illustrator 24.0.2, SVG Export Plug-In . SVG Version: 6.00 Build 0)  -->
<svg version="1.1" id="_x2014_ÎÓÈ_x5F_1" xmlns="http://www.w3.org/2000/svg" xmlns:xlink="http://www.w3.org/1999/xlink"
	 x="0px" y="0px" viewBox="0 0 85.07 108.72" style="enable-background:new 0 0 85.07 108.72;" xml:space="preserve">
<style type="text/css">
	.st0{fill-rule:evenodd;clip-rule:evenodd;fill:#0e529e;}
</style>
<g>
	<path class="st0" d="M0.7,38.92c5.03,2.66,11.76,3.41,20.17,2.25l0.15-0.02c0.37-0.06,0.76-0.1,1.15-0.13
		c3.68-0.32,7.11,0.6,10.3,2.73c3.19,2.14,5.19,4.87,6.02,8.2c0.33,1.35,0.43,2.64,0.28,3.87c-0.13,1.01-0.37,1.92-0.72,2.73
		c0.96,1.04,1.87,2.22,2.72,3.55V42.05c-0.13-0.01-0.27-0.02-0.4-0.03c-0.35-0.03-0.7-0.07-1.05-0.12
		c-4.31-0.63-8.08-2.56-11.32-5.8c-4-3.99-6-8.83-6-14.5c0-5.67,2-10.52,6-14.53c4.01-3.99,8.85-5.99,14.52-5.98
		c5.67,0,10.51,1.99,14.5,5.98c4.01,4.01,6.02,8.86,6.02,14.53c0,5.67-2.01,10.51-6.02,14.5c-3.48,3.5-7.6,5.47-12.35,5.92
		c-0.13,0.01-0.27,0.02-0.4,0.03v20.1c0.86-1.35,1.77-2.55,2.75-3.6c-0.35-0.81-0.59-1.72-0.72-2.73c-0.14-1.23-0.05-2.51,0.28-3.87
		c0.82-3.33,2.83-6.06,6.02-8.2c3.19-2.13,6.62-3.05,10.3-2.73c0.39,0.03,0.78,0.08,1.15,0.13l0.15,0.02
		c8.41,1.16,15.13,0.41,20.17-2.25c1.07,2.9,0.92,6.19-0.47,9.87c-1.8,4.76-5.13,8.77-10,12.03c-4.87,3.26-9.84,4.83-14.93,4.68
		c-4.92-0.14-8.55-1.84-10.88-5.1c-1.66,2.23-2.83,4.79-3.52,7.67h28.07l1.25,10.48H70.1l-9.05,30.17H23.99l-9.03-30.17h-3.78
		l1.25-10.48H40.5c-0.69-2.88-1.86-5.43-3.52-7.67c-2.33,3.26-5.96,4.96-10.88,5.1c-5.09,0.14-10.07-1.42-14.93-4.68
		c-4.87-3.26-8.2-7.27-10-12.03C-0.21,45.11-0.37,41.82,0.7,38.92z M48.44,16.49l1.8-4.58c-1.8-0.79-3.56-1.28-5.3-1.47V8.22h-4.75
		v2.45c-0.38,0.1-0.74,0.21-1.08,0.35c-0.69,0.26-1.31,0.6-1.85,1.02c-1.47,1.13-2.2,2.69-2.2,4.7c0,1.09,0.17,2.03,0.52,2.82
		c0.34,0.78,0.86,1.48,1.58,2.1c0.48,0.42,1.13,0.85,1.95,1.28c0.33,0.17,0.69,0.35,1.08,0.53c0.06,0.03,0.12,0.05,0.18,0.08
		c1.57,0.71,2.55,1.17,2.92,1.4c0.23,0.14,0.42,0.28,0.57,0.43c0.09,0.09,0.17,0.18,0.23,0.27c0.16,0.21,0.23,0.46,0.23,0.75
		c0,0.42-0.16,0.78-0.47,1.07c-0.05,0.05-0.1,0.09-0.15,0.13c-0.41,0.29-1.06,0.44-1.93,0.43c-0.5,0-1.03-0.04-1.58-0.12
		c-0.35-0.04-0.71-0.11-1.08-0.18c-0.22-0.05-0.45-0.1-0.68-0.17c-1.23-0.33-2.4-0.79-3.52-1.37v5.28c1.06,0.51,2.09,0.86,3.08,1.07
		c0.34,0.07,0.72,0.13,1.12,0.18c0.34,0.04,0.7,0.07,1.08,0.08V35h4.75v-2.55c0.46-0.13,0.89-0.29,1.3-0.47
		c1.3-0.59,2.29-1.41,2.97-2.45c0.69-1.06,1.04-2.27,1.03-3.63c0-1.47-0.36-2.69-1.08-3.67c-0.75-0.98-2.06-1.89-3.93-2.73
		c-0.1-0.05-0.19-0.09-0.28-0.13c-0.39-0.18-0.76-0.36-1.08-0.52c-1.18-0.56-1.93-0.97-2.27-1.22c-0.44-0.34-0.66-0.72-0.67-1.15
		c0-0.41,0.18-0.75,0.52-1.02c0.35-0.27,0.92-0.4,1.7-0.4c0.23,0,0.47,0.01,0.72,0.03c0.35,0.03,0.71,0.09,1.08,0.17
		C45.99,15.49,47.16,15.9,48.44,16.49z"/>
</g>
</svg>
