<?xml version="1.0" encoding="utf-8"?>
<!-- Generator: Adobe Illustrator 24.0.2, SVG Export Plug-In . SVG Version: 6.00 Build 0)  -->
<svg version="1.1" id="Layer_2" xmlns="http://www.w3.org/2000/svg" xmlns:xlink="http://www.w3.org/1999/xlink" x="0px" y="0px"
	 viewBox="0 0 68.19 36.66" style="enable-background:new 0 0 68.19 36.66;" xml:space="preserve">
<style type="text/css">
	.st0{fill-rule:evenodd;clip-rule:evenodd;fill:#ffffff;}
</style>
<path class="st0" d="M0,36.66L0,36.66l14.97-20.52l9.33-1.75l4.21-4.98l0.52-0.62L36.46,0l16.1,21.29l3-1.07l12.63,16.44
	 M21.44,17.49L21.44,17.49l-5.34,1.08L5.05,34.13L21.44,17.49L21.44,17.49z M36.05,4.21L36.05,4.21L12.92,31.84l13.21-9.46
	l1.97,5.46L36.05,4.21L36.05,4.21z M55.1,22.57L55.1,22.57c0.34-0.28-20.83,8.7-20.83,8.7l14.23-2.35l3.43,3.11L55.1,22.57z"/>
</svg>
