<?xml version="1.0" encoding="utf-8"?>
<!-- Generator: Adobe Illustrator 24.0.2, SVG Export Plug-In . SVG Version: 6.00 Build 0)  -->
<svg version="1.1" id="_x2014_ÎÓÈ_x5F_1" xmlns="http://www.w3.org/2000/svg" xmlns:xlink="http://www.w3.org/1999/xlink"
	 x="0px" y="0px" viewBox="0 0 97.21 103.74" style="enable-background:new 0 0 97.21 103.74;" xml:space="preserve">
<style type="text/css">
	.st0{fill-rule:evenodd;clip-rule:evenodd;fill:#0e529e;}
</style>
<g>
	<g>
		<path class="st0" d="M74.54,103.74H12.72v-0.01h-0.07c-0.19,0-0.38,0-0.58,0c-1.2,0-2.4,0-3.63,0H3.74c-1.25,0-2.49,0-3.74,0V97.8
			h97.21v5.93c-1.24,0-2.49,0-3.73,0c-0.63,0-1.26,0-1.89,0c-0.94,0-1.88,0-2.82,0c-1.21,0-2.41,0-3.62,0c-1.63,0-3.27,0-4.9,0
			c-0.44,0-0.89,0-1.35,0L74.54,103.74L74.54,103.74z"/>
	</g>
	<g>
		<path class="st0" d="M73.52,20.86h20.39v5.65l-2.32,5.67v62.46H73.52V88.7h12.14v-9.68H73.52v-5.93h12.14V63.4c-1,0-1.99,0-2.98,0
			c-0.35,0-0.69,0-1.04,0c-2.71,0-5.41,0-8.12,0v-5.93h12.14V47.8l0.01-0.01h-0.01c-1,0-1.99,0-2.98,0c-0.35,0-0.69,0-1.04,0
			c-2.71,0-5.41,0-8.12,0v-5.93h12.14v-9.67H73.52V20.86z"/>
	</g>
	<g>
		<path class="st0" d="M70.37,11.33v83.31H52.82V83.32h11.61v-9.55c-0.24,0-0.49,0-0.73,0c-1.04,0-2.09,0-3.14,0
			c-0.34,0-0.69,0-1.03,0c-0.25,0-0.51,0-0.77,0h-0.01v0.01h-5.93v-0.01c-0.19,0-0.39,0-0.58,0c-1.74,0-3.47,0-5.21,0
			c-0.07,0-0.15,0-0.22,0c-0.63,0-1.26,0-1.89,0c-0.04,0-0.09,0-0.13,0h-0.42v0.01h-5.91v-0.01h0c-0.13,0-0.27,0-0.4,0H37.6
			c-0.36,0-0.72,0-1.08,0c-1.25,0-2.5,0-3.76,0v9.55h11.61v11.32H26.84V11.33l-2.32-5.68V0h48.17v5.65L70.37,11.33z M32.77,36.61
			h31.66v-9.68l0.01-0.01h-0.01c-0.24,0-0.49,0-0.73,0c-1.04,0-2.09,0-3.14,0c-0.34,0-0.69,0-1.03,0c-1.05,0-2.09,0-3.14,0
			c-1.38,0-2.76,0-4.14,0c-0.1,0-0.21,0-0.31,0c-1.71,0-3.41,0-5.12,0c-0.51,0-1.02,0-1.53,0c-0.14,0-0.29,0-0.43,0h-0.86
			c-0.04,0-0.07,0-0.11,0c-1.05,0-2.09,0-3.14,0c-0.7,0-1.39,0-2.09,0c-0.35,0-0.7,0-1.05,0c-1.61,0-3.22,0-4.84,0h-0.01l0.01,0.01
			V36.61z M32.77,52.23h31.66v-9.69c-0.24,0-0.49,0-0.73,0c-1.04,0-2.09,0-3.14,0c-0.34,0-0.69,0-1.03,0c-1.05,0-2.09,0-3.14,0
			c-1.38,0-2.76,0-4.14,0c-0.1,0-0.21,0-0.31,0c-1.71,0-3.41,0-5.12,0c-0.51,0-1.02,0-1.53,0c-0.14,0-0.29,0-0.43,0h-0.86
			c-0.04,0-0.07,0-0.11,0c-1.05,0-2.09,0-3.14,0c-0.7,0-1.39,0-2.09,0c-0.35,0-0.7,0-1.05,0c-1.61,0-3.22,0-4.84,0V52.23z
			 M32.77,58.16v9.68h31.66v-9.68H32.77z M64.43,11.33H32.77V21h31.66V11.33z"/>
	</g>
	<g>
		<path class="st0" d="M23.69,20.86v11.33H11.55v9.67h12.14v5.93c-2.71,0-5.42,0-8.12,0c-0.34,0-0.69,0-1.03,0
			c-0.99,0-1.99,0-2.98,0h-0.01l0.01,0.01v9.68h12.14v5.93c-2.71,0-5.42,0-8.12,0c-0.34,0-0.69,0-1.03,0c-0.99,0-1.99,0-2.98,0v9.69
			h12.14v5.93H11.55v9.68h12.14v5.94H5.62V32.19L3.3,26.51v-5.65H23.69z"/>
	</g>
</g>
</svg>
