<?xml version="1.0" encoding="utf-8"?>
<!-- Generator: Adobe Illustrator 24.0.2, SVG Export Plug-In . SVG Version: 6.00 Build 0)  -->
<svg version="1.1" id="_x2014_ÎÓÈ_x5F_1" xmlns="http://www.w3.org/2000/svg" xmlns:xlink="http://www.w3.org/1999/xlink"
	 x="0px" y="0px" viewBox="0 0 4049.01 4117.82" style="enable-background:new 0 0 4049.01 4117.82;" xml:space="preserve">
<style type="text/css">
	.st0{fill:#50B848;}
	.st1{fill:#429C46;}
	.st2{fill:#FFFFFF;}
</style>
<g>
	<ellipse class="st0" cx="2024.5" cy="2063.98" rx="1997.18" ry="2016.22"/>
	<g>
		<path class="st1" d="M3932.13,2662.76L3013.6,1725.6l-52.56-33.54l-749.13-754.18l-194.07,81.03l-120.6,1067.07l-437.48-410.76
			l-464.29,939.26l1.33,357.92l1088.58,1106.87C2955.18,4052.98,3685.24,3465.25,3932.13,2662.76z"/>
	</g>
	<g>
		<path class="st2" d="M2909.99,2073.84c91.94-21.68,160.49-104.76,160.49-204.18c0-113.37-89.1-205.5-200.43-209.49l-0.08-0.88
			H2307.7c0,0,94.25-669.43-165.73-769.52c-47.62-18.33-101.55-11.46-141.67,20.26c-123.5,97.64-38.79,351.14-109.39,509.77
			c-114.02,233.33-228.04,306.54-272.02,327.3c-11.57,5.46-18.94,17.22-18.94,30.12V2826.3c0,30.85,25.32,61.7,57.21,88.33
			c61.2,51.1,138.51,78.38,217.93,78.38h751.1l0.02-0.16c76.71-1.7,138.42-64.89,138.42-142.74c0-40.42-16.69-76.84-43.41-102.83
			c97.12-4.78,174.48-85.55,174.48-184.78c0-52.8-21.99-100.31-57.09-134.05c2.6,0.12,5.15,0.41,7.77,0.41
			c96.27,0,174.31-82.34,174.31-183.92C3020.69,2167.09,2974.76,2100.68,2909.99,2073.84z"/>
		<path class="st2" d="M1420.66,2993.01h-376.11c-36.46,0-66.02-29.84-66.02-66.65V1728.92c0-36.81,29.56-66.65,66.02-66.65h376.11
			c36.46,0,66.02,29.84,66.02,66.65v1197.44C1486.68,2963.17,1457.12,2993.01,1420.66,2993.01z"/>
	</g>
</g>
</svg>
