<?xml version="1.0" encoding="utf-8"?>
<!-- Generator: Adobe Illustrator 24.0.2, SVG Export Plug-In . SVG Version: 6.00 Build 0)  -->
<svg version="1.1" id="Layer_1" xmlns="http://www.w3.org/2000/svg" xmlns:xlink="http://www.w3.org/1999/xlink" x="0px" y="0px"
	 viewBox="0 0 355.71 192.51" style="enable-background:new 0 0 355.71 192.51;" xml:space="preserve">
<style type="text/css">
	.st0{fill:none;stroke:#ffffff;stroke-width:14;stroke-linecap:round;stroke-linejoin:round;stroke-miterlimit:22.9256;}
	
		.st1{fill-rule:evenodd;clip-rule:evenodd;fill:#ffffff;stroke:#ffffff;stroke-width:14;stroke-linecap:round;stroke-linejoin:round;stroke-miterlimit:22.9256;}
</style>
<g>
	<path class="st0" d="M7.44,185.05h340.85V7.29H7.44V185.05L7.44,185.05z M177.86,154.02c23.96,0,43.39-25.9,43.39-57.85
		s-19.42-57.85-43.39-57.85c-23.96,0-43.39,25.9-43.39,57.85S153.9,154.02,177.86,154.02L177.86,154.02z M69.52,177.22
		c0-29.55-23.95-53.5-53.5-53.5 M286.21,177.22c0-29.55,23.95-53.5,53.5-53.5 M69.52,15.12c0,29.55-23.95,53.5-53.5,53.5
		 M286.21,15.12c0,29.55,23.95,53.5,53.5,53.5"/>
	<path class="st1" d="M90.98,107.38c6.19,0,11.22-5.02,11.22-11.22c0-6.19-5.02-11.22-11.22-11.22c-6.19,0-11.22,5.02-11.22,11.22
		C79.76,102.36,84.78,107.38,90.98,107.38L90.98,107.38z"/>
	<path class="st1" d="M264.59,107.38c6.19,0,11.22-5.02,11.22-11.22c0-6.19-5.02-11.22-11.22-11.22c-6.19,0-11.22,5.02-11.22,11.22
		C253.37,102.36,258.39,107.38,264.59,107.38L264.59,107.38z"/>
</g>
</svg>
