<?xml version="1.0" encoding="utf-8"?>
<!-- Generator: Adobe Illustrator 19.0.0, SVG Export Plug-In . SVG Version: 6.00 Build 0)  -->
<svg version="1.1" id="Layer_1" xmlns="http://www.w3.org/2000/svg" xmlns:xlink="http://www.w3.org/1999/xlink" x="0px" y="0px"
	 viewBox="0 0 129.6 20.1" style="enable-background:new 0 0 129.6 20.1;" xml:space="preserve">
<style type="text/css">
	.st0{fill:#8A8C8E;}
	.st1{fill:url(#XMLID_163_);}
	.st2{fill:url(#XMLID_164_);}
	.st3{fill:url(#XMLID_191_);}
	.st4{fill:url(#SVGID_1_);}
</style>
<g>
	<g id="XMLID_206_">
		<path id="XMLID_207_" class="st0" d="M14.3,0.4c-0.3,0-0.6,0.1-0.9,0.4c-0.2,0.2-0.4,0.5-0.4,0.9c0,0.3,0.1,0.6,0.4,0.9
			c0.2,0.2,0.5,0.4,0.9,0.4c0.3,0,0.6-0.1,0.9-0.4c0.2-0.2,0.4-0.5,0.4-0.9c0-0.3-0.1-0.6-0.4-0.9C15,0.5,14.7,0.4,14.3,0.4z
			 M7.7,5.2C7.1,4.6,6.2,4.4,5.1,4.4C3.7,4.4,2.5,5,1.5,6.1C0.5,7.3,0,8.7,0,10.4c0,1.7,0.4,3,1.3,4c0.9,1,2,1.5,3.4,1.5
			c1.3,0,2.3-0.3,3-1v0.8h2V0h-2V5.2z M7.7,13.3c-0.1,0.2-0.4,0.4-0.8,0.6c-0.4,0.2-0.8,0.3-1.1,0.3c-2.4,0-3.7-1.3-3.7-4
			c0-1.2,0.3-2.2,1-3C3.7,6.4,4.6,6,5.6,6c0.9,0,1.5,0.4,2,1.1V13.3z M11.7,6.2h1.5v9.5h2V4.6h-3.5V6.2z M28.1,6.2h1.5v9.5h2V4.6
			h-3.5V6.2z M54.4,0v12.2c0,1.4-0.3,1.9-0.7,1.9c-0.4,0-1.1,0-1.8,0c-0.7,0-1-0.2-1-1.2V9c0-1.6-0.4-2.8-1.1-3.5
			c-0.7-0.7-1.9-1.1-3.5-1.1c-0.6,0-1.2,0.1-1.9,0.3c-0.7,0.2-1.2,0.5-1.6,0.8l0.8,1.7c0.7-0.7,1.6-1,2.9-1c1.6,0,2.4,0.9,2.4,2.7
			c-0.5-0.2-1-0.3-1.4-0.3c-1.5,0-2.8,0.4-3.8,1.2c-1,0.8-1.5,1.7-1.5,2.9c0,0.9,0.3,1.7,1,2.4c0.6,0.6,1.4,1,2.3,1
			c1.6,0,2.8-0.5,3.6-1.5c0.2,0.5,0.5,0.9,0.9,1.1c0.4,0.2,1.1,0.3,1.9,0.4v0c0,0,0,0,0,0c0,0,0,0,0,0v0c2.9,0,4.5,0.1,4.5-3.4V0
			H54.4z M48.8,12.9c-0.8,1-1.7,1.4-2.7,1.4c-1.4,0-2-0.6-2-1.7c0-0.7,0.3-1.3,0.9-1.8c0.6-0.5,1.4-0.8,2.4-0.8
			c0.2,0,0.7,0.1,1.3,0.2V12.9z M39.2,14.3c-0.7,0-1.2-0.2-1.5-0.6c-0.3-0.4-0.5-1.1-0.5-2V6.1h3.1V4.6h-3.1V1.5l-2,0.8v2.3h-1.3
			v1.6h1.3v6.3c0,1,0.3,1.8,0.9,2.5c0.6,0.7,1.4,1,2.2,1c1,0,1.9-0.1,2.7-0.3l-0.3-1.7C40.2,14.1,39.7,14.3,39.2,14.3z M23.3,13.7
			c-0.3,0-0.8,0.1-1.4,0.2c-0.6,0.1-1.1,0.2-1.4,0.2c-0.7,0-1-0.1-1-0.4c0-0.2,0.2-0.4,0.5-0.5c0.3-0.1,0.6-0.2,0.8-0.2l1.6-0.2
			c1.1-0.1,2.1-0.5,2.8-1.3c0.7-0.8,1.1-1.7,1.1-2.8c0-1.1-0.3-1.9-0.8-2.6l1.2-0.9l-1.3-1.2l-1,1.2c-0.6-0.5-1.5-0.7-2.6-0.7
			c-1.2,0-2.2,0.4-3,1.2c-0.8,0.8-1.2,1.7-1.2,2.9c0,1.8,0.8,3.1,2.4,3.8c-0.5,0.1-1,0.3-1.4,0.6c-0.4,0.3-0.6,0.6-0.6,1
			c0,1.2,0.8,1.8,2.4,1.8c0.3,0,0.8-0.1,1.4-0.2c0.6-0.1,1-0.2,1.2-0.2c1.3,0,2,0.5,2,1.4c0,0.5-0.3,0.8-0.8,1.1
			c-0.5,0.3-1.2,0.5-2.1,0.5c-0.9,0-1.8-0.3-2.8-0.9l0.7-1l-3.5,0.2l1.1,3.3l0.6-0.9c0.4,0.3,0.9,0.5,1.6,0.7
			c0.8,0.3,1.6,0.4,2.3,0.4c1.4,0,2.6-0.3,3.5-0.9c0.9-0.6,1.4-1.5,1.4-2.5c0-0.9-0.3-1.7-0.9-2.2C25.3,13.9,24.4,13.7,23.3,13.7z
			 M19.6,8.4c0-0.7,0.2-1.3,0.6-1.8c0.4-0.5,1-0.7,1.7-0.7c0.6,0,1.2,0.2,1.6,0.7c0.4,0.5,0.6,1.1,0.6,1.8c0,0.8-0.2,1.5-0.6,2
			s-0.9,0.7-1.6,0.7c-0.7,0-1.3-0.3-1.7-0.8C19.8,9.9,19.6,9.2,19.6,8.4z M30.7,0.4c-0.3,0-0.6,0.1-0.9,0.4
			c-0.2,0.2-0.4,0.5-0.4,0.9c0,0.3,0.1,0.6,0.4,0.9c0.2,0.2,0.5,0.4,0.9,0.4c0.3,0,0.6-0.1,0.9-0.4c0.2-0.2,0.4-0.5,0.4-0.9
			c0-0.3-0.1-0.6-0.4-0.9C31.3,0.5,31,0.4,30.7,0.4z"/>
	</g>
</g>
<g>
	<g>
		<g id="XMLID_102_">
			<linearGradient id="XMLID_163_" gradientUnits="userSpaceOnUse" x1="100.5959" y1="9.2436" x2="100.5959" y2="15.0918">
				<stop  offset="0" style="stop-color:#FFDD00"/>
				<stop  offset="1" style="stop-color:#FCC40F"/>
			</linearGradient>
			<path id="XMLID_103_" class="st1" d="M89.2,12.3V9.9c0-2.2-0.4-3.6-1.2-4.4c-0.8-0.8-2-1.2-3.7-1.2c-1.2,0-2.3,0.2-3.2,0.6l0.6,2
				c0.7-0.3,1.5-0.5,2.5-0.5c1.7,0,2.5,0.7,2.5,2c-0.4-0.1-0.8-0.2-1.1-0.2c-1.8,0-3.2,0.4-4.1,1.1c-1,0.7-1.5,1.7-1.5,3
				c0,1.1,0.3,2,1,2.6c0.7,0.6,1.6,0.9,2.8,0.9c0.6,0,1.3-0.1,1.8-0.4c0.6-0.2,1-0.6,1.2-1c0.1,0.3,0.3,0.6,0.6,0.9
				c0.3,0.3,0.6,0.4,1,0.4c0.3,0,0.6,0,0.9-0.1c0.3-0.1,0.5-0.3,0.7-0.7C89.5,14.7,89.2,13.8,89.2,12.3z M86.6,11.5
				c0,1.6-0.8,2.3-2.3,2.3c-1.2,0-1.7-0.5-1.7-1.5c0-1.3,1-2,3.1-2c0.2,0,0.6,0,1,0.1V11.5z M116,4.4c-1.5,0-2.8,0.5-3.9,1.6
				c-1.1,1.1-1.6,2.5-1.6,4.3c0,1.8,0.5,3.2,1.5,4.2c1,1,2.3,1.5,4,1.5c1.8,0,3.2-0.4,4.1-1.1l-1-2c-0.6,0.6-1.5,0.9-2.7,0.9
				c-0.9,0-1.7-0.2-2.3-0.7c-0.6-0.5-0.9-1.2-0.9-2.1h8c0.1-0.6,0.2-1.1,0.2-1.4c0-1.5-0.5-2.7-1.5-3.7C118.9,4.8,117.6,4.4,116,4.4
				z M113.3,9c0.4-1.6,1.3-2.4,2.8-2.4c1.6,0,2.5,0.8,2.7,2.4H113.3z M107.9,3.7l-1,1.2c-0.7-0.4-1.5-0.6-2.5-0.6
				c-1.3,0-2.4,0.4-3.2,1.2c-0.9,0.8-1.3,1.8-1.3,3c0,1.5,0.6,2.7,1.9,3.5c-0.4,0.2-0.7,0.4-1,0.8c-0.3,0.4-0.4,0.7-0.4,1.1
				c0,1.3,0.9,1.9,2.7,1.9c0.3,0,0.7,0,1.3-0.1c0.6-0.1,1-0.1,1.3-0.1c1.1,0,1.6,0.3,1.6,1c0,0.4-0.2,0.7-0.7,0.9
				c-0.5,0.2-1.1,0.3-1.9,0.3c-1,0-2-0.4-2.8-1.1l0.5-0.6L98.7,16l0.8,3.4l0.6-0.7c1.3,0.9,2.8,1.4,4.4,1.4c1.4,0,2.6-0.3,3.7-1
				c1-0.6,1.5-1.5,1.5-2.6c0-2-1.3-3-3.8-3c-0.4,0-0.8,0.1-1.3,0.2c-0.5,0.1-0.9,0.2-1.1,0.2c-0.5,0-0.7-0.1-0.7-0.4
				c0-0.2,0.2-0.3,0.5-0.5c0.3-0.1,0.5-0.2,0.6-0.2l0.4,0.1c0.3,0,0.6,0.1,0.7,0.1c1.2,0,2.2-0.4,2.9-1.1c0.8-0.8,1.2-1.8,1.2-3
				c0-0.9-0.2-1.7-0.6-2.3l1.2-0.9L107.9,3.7z M105.9,10.1c-0.3,0.4-0.8,0.6-1.4,0.6c-0.6,0-1.1-0.2-1.5-0.6
				c-0.4-0.4-0.5-0.9-0.5-1.6c0-0.6,0.2-1.1,0.6-1.4c0.4-0.4,0.9-0.6,1.5-0.6c0.6,0,1,0.2,1.4,0.6c0.4,0.4,0.5,0.9,0.5,1.4
				C106.4,9.2,106.2,9.7,105.9,10.1z M75.8,13.2c-0.2-0.3-0.4-0.9-0.4-1.7V6.7h3.1V4.6h-3.1V1.3l-2.6,1v2.3h-1.3v2.1h1.3v5.6
				c0,1.2,0.3,2.1,0.9,2.7c0.6,0.6,1.4,0.9,2.6,0.9c1.1,0,2-0.1,2.6-0.3v-2.4c-0.5,0.3-1.1,0.5-1.7,0.5
				C76.5,13.7,76.1,13.6,75.8,13.2z M97.3,4.4c-1.2,0-2.2,0.4-2.9,1.2v-1h-2.6v11.1h2.6V9.4c0-0.8,0.2-1.5,0.7-2
				c0.5-0.5,1-0.8,1.6-0.8c0.6,0,1.1,0.2,1.5,0.5l1.1-2.2C98.9,4.5,98.2,4.4,97.3,4.4z M127.9,13.7c-0.6,0-1.1-0.2-1.3-0.5
				c-0.3-0.3-0.4-0.9-0.4-1.7V6.7h3.1V4.6h-3.1V1.3l-2.6,1v2.3h-1.3v2.1h1.3v5.6c0,1.2,0.3,2.1,0.9,2.7c0.6,0.6,1.4,0.9,2.6,0.9
				c1.1,0,2-0.1,2.6-0.3v-2.4C129.1,13.6,128.5,13.7,127.9,13.7z"/>
		</g>
	</g>
	<g>
		<g>
			<g id="XMLID_37_">
				<linearGradient id="XMLID_164_" gradientUnits="userSpaceOnUse" x1="64.3362" y1="9.2437" x2="64.3362" y2="15.0918">
					<stop  offset="0" style="stop-color:#FFDD00"/>
					<stop  offset="1" style="stop-color:#FCC40F"/>
				</linearGradient>
				<path id="XMLID_38_" class="st2" d="M64.3,5.2l-5,5l5,4.9l5-5L64.3,5.2z M60.4,10.1l3.9-3.9l3.9,3.9L64.3,14L60.4,10.1z"/>
			</g>
		</g>
		<g>
			<g id="XMLID_29_">
				<linearGradient id="XMLID_191_" gradientUnits="userSpaceOnUse" x1="64.3493" y1="9.2436" x2="64.3493" y2="15.0917">
					<stop  offset="0" style="stop-color:#FFDD00"/>
					<stop  offset="1" style="stop-color:#FCC40F"/>
				</linearGradient>
				<path id="XMLID_30_" class="st3" d="M64.3,7.2l-2.9,2.9l2.9,2.9l2.9-2.9L64.3,7.2z M62.5,10.1l1.9-1.9l1.9,1.9L64.3,12
					L62.5,10.1z"/>
			</g>
		</g>
		<linearGradient id="SVGID_1_" gradientUnits="userSpaceOnUse" x1="64.3491" y1="9.2436" x2="64.3491" y2="15.0919">
			<stop  offset="0" style="stop-color:#FFDD00"/>
			<stop  offset="1" style="stop-color:#FCC40F"/>
		</linearGradient>
		<polygon class="st4" points="64.3,9.2 65.2,10.1 64.3,11 63.4,10.1 		"/>
	</g>
</g>
</svg>
